<?xml version="1.0" encoding="UTF-8"?>
<svg width="68px" height="90px" viewBox="0 0 68 90" version="1.1" xmlns="http://www.w3.org/2000/svg" xmlns:xlink="http://www.w3.org/1999/xlink">
    <!-- Generator: Sketch 44 (41411) - http://www.bohemiancoding.com/sketch -->
    <title>Page 1</title>
    <desc>Created with Sketch.</desc>
    <defs>
        <polygon id="path-1" points="67.7095429 89.9997568 67.7095429 0.0812432432 9.71428571e-05 0.0812432432 9.71428571e-05 89.9997568 67.7095429 89.9997568"></polygon>
    </defs>
    <g id="Page-1" stroke="none" stroke-width="1" fill="none" fill-rule="evenodd">
        <g id="Home" transform="translate(-674.000000, -857.000000)">
            <g id="Page-1" transform="translate(674.000000, 857.000000)">
                <g id="Group-3">
                    <mask id="mask-2" fill="white">
                        <use xlink:href="#path-1"></use>
                    </mask>
                    <g id="Clip-2"></g>
                    <path d="M4.82324,2.51343243 C3.50306857,2.51343243 2.42866857,3.58954054 2.42866857,4.91181081 L2.42866857,85.1689459 C2.42866857,86.4917027 3.50306857,87.5673243 4.82324,87.5673243 L62.8864971,87.5673243 C64.2066686,87.5673243 65.2810686,86.4917027 65.2810686,85.1689459 L65.2810686,4.91181081 C65.2810686,3.58954054 64.2066686,2.51343243 62.8864971,2.51343243 L4.82324,2.51343243 Z M62.8864971,89.9997568 L4.82324,89.9997568 C2.16346857,89.9997568 9.71428571e-05,87.8329459 9.71428571e-05,85.1689459 L9.71428571e-05,4.91181081 C9.71428571e-05,2.2482973 2.16346857,0.081 4.82324,0.081 L62.8864971,0.081 C65.5457829,0.081 67.70964,2.2482973 67.70964,4.91181081 L67.70964,85.1689459 C67.70964,87.8329459 65.5457829,89.9997568 62.8864971,89.9997568 L62.8864971,89.9997568 Z" id="Fill-1" fill="#000000" mask="url(#mask-2)"></path>
                </g>
                <path d="M33.2295687,71.7979392 C33.3826145,71.5506462 33.5829837,71.3557457 33.8306763,71.2132379 C34.0783689,71.07073 34.3386474,71 34.6125189,71 C35.062091,71 35.4054372,71.1320293 35.6435644,71.396088 C35.8811881,71.6606706 36,71.9896961 36,72.3826406 C36,72.7017115 35.9264977,72.9846315 35.7799966,73.2319246 C35.6334956,73.4792176 35.4346367,73.6694027 35.1839235,73.8014321 C34.9332103,73.9334614 34.6613526,74 34.3683504,74 C34.1272026,74 33.9021648,73.9423681 33.6937406,73.8271044 C33.4853163,73.7118407 33.3176708,73.5488998 33.1903004,73.3388054 C33.0634335,73.1287111 33,72.8882291 33,72.6163116 C33,72.3181977 33.0765229,72.0457562 33.2295687,71.7979392" id="Fill-4" fill="#000000"></path>
                <path d="M37.9840046,76.642861 C38.3204121,76.4048956 38.6265581,76.1031456 38.90446,75.7381017 C39.1818575,75.3730578 39.3921752,74.9746497 39.5359176,74.5428774 C39.6922689,74.0222973 39.8002017,73.4413673 39.8587074,72.8000872 C39.9172131,72.1588072 39.9469702,71.1843755 39.9469702,69.8763016 L39.9469702,61.3046394 L38.1065639,61.0568609 L38.1065639,60 L44,60 L44,61.0568609 L42.2281865,61.3046394 L42.2281865,69.1143215 L42.2281865,70.2094532 C42.2281865,71.1554271 42.2135601,71.9252576 42.1838029,72.5189446 C42.15455,73.1131222 42.0910008,73.6253612 41.9931551,74.0571335 C41.8297428,74.7935997 41.5195619,75.4348798 41.0631169,75.9809737 C40.6061676,76.5270675 40.0725557,76.9666903 39.4622811,77.2998419 C38.8520066,77.6334842 38.2170185,77.8670337 37.5583255,78 L37,77.1236984 C37.3197637,77.0412691 37.6475971,76.8808265 37.9840046,76.642861" id="Fill-6" fill="#000000"></path>
                <path d="M46.1674957,69.8371983 L47.5368998,69.8371983 L47.931276,72.121628 C48.154096,72.3355419 48.5154807,72.5186938 49.0149223,72.6701372 C49.5138565,72.822054 50.0559334,72.8977757 50.6406456,72.8977757 C51.6192265,72.8977757 52.3562075,72.6994794 52.8520962,72.3028869 C53.347985,71.9067676 53.5961831,71.3563654 53.5961831,70.6526266 C53.5961831,70.1935637 53.4596488,69.7983909 53.1870876,69.4675816 C52.9145264,69.1367724 52.5450208,68.8461903 52.0785707,68.595362 C51.6126282,68.3450071 50.9720841,68.0530052 50.1574459,67.7188831 C49.4483809,67.4268812 48.8108821,67.110743 48.2464724,66.7709418 C47.6810476,66.4311406 47.1953101,65.9895883 46.7882448,65.4472314 C46.380672,64.9048746 46.1776469,64.2636062 46.1776469,63.5243729 C46.1776469,62.8442972 46.3776266,62.2375769 46.7786012,61.7037388 C47.1790681,61.1703739 47.7505837,60.7529579 48.4926403,60.4514908 C49.234697,60.1504969 50.0985687,60 51.0837478,60 C51.6877474,60 52.246574,60.0473261 52.7587047,60.1424515 C53.2708354,60.2375769 53.8027611,60.3582584 54.3544818,60.5054425 C54.6437925,60.5849503 54.8767638,60.6398486 55.0539032,60.6706105 L54.9259974,63.7425461 L53.6058268,63.7425461 L53.1525733,61.5745386 C53.0277129,61.4495977 52.765303,61.3355419 52.3643285,61.2309513 C51.9638615,61.1268339 51.530403,61.0747752 51.0639529,61.0747752 C49.2905289,61.0747752 48.4038169,61.7250355 48.4038169,63.0246096 C48.4038169,63.4779934 48.538321,63.8655939 48.8078368,64.1874113 C49.076845,64.5097018 49.4346767,64.7946048 49.8818394,65.0421202 C50.3284946,65.2896356 50.9883261,65.6071936 51.8618414,65.9943209 C52.7292661,66.3823947 53.4383311,66.736867 53.9900518,67.0586843 C54.5417724,67.3809749 55.0148208,67.7908187 55.409197,68.2891623 C55.8030657,68.7870327 56,69.375769 56,70.0553715 C56,70.7113109 55.7979901,71.3421675 55.3939702,71.9469948 C54.9899503,72.5527686 54.3823977,73.0459063 53.5713126,73.4278277 C52.7602274,73.8092759 51.7765709,74 50.6203431,74 C49.911278,74 49.2646432,73.9403691 48.679931,73.8211074 C48.0952188,73.7018457 47.4876662,73.5470894 46.8572734,73.3573119 C46.4238148,73.228585 46.1380571,73.1585424 46,73.1457643 L46.1674957,69.8371983 Z" id="Fill-8" fill="#000000"></path>
            </g>
        </g>
    </g>
</svg>