<?xml version="1.0" encoding="UTF-8" standalone="no"?>
<svg width="85px" height="91px" viewBox="0 0 85 91" version="1.1" xmlns="http://www.w3.org/2000/svg" xmlns:xlink="http://www.w3.org/1999/xlink">
    <!-- Generator: Sketch 44.1 (41455) - http://www.bohemiancoding.com/sketch -->
    <title>Page 1</title>
    <desc>Created with Sketch.</desc>
    <defs>
        <polygon id="path-1" points="84.6222781 45.5473993 84.6222781 90.9047619 0 90.9047619 0 45.5473993 0 0.190036659 84.6222781 0.190036659 84.6222781 45.5473993"></polygon>
        <polygon id="path-3" points="0 90 85 90 85 0 0 0"></polygon>
    </defs>
    <g id="Page-1" stroke="none" stroke-width="1" fill="none" fill-rule="evenodd">
        <g id="Home" transform="translate(-1048.000000, -855.000000)">
            <g id="Group-2" transform="translate(767.000000, 855.000000)">
                <g id="Page-1" transform="translate(281.000000, 0.000000)">
                    <g id="Group-3">
                        <mask id="mask-2" fill="white">
                            <use xlink:href="#path-1"></use>
                        </mask>
                        <g id="Clip-2"></g>
                        <path d="M82.1074852,59.995213 C82.1074852,61.1840848 81.1498521,62.1510271 79.972426,62.1510271 L4.64985207,62.1510271 C3.47242604,62.1510271 2.5147929,61.1840848 2.5147929,59.995213 L2.5147929,4.88508986 C2.5147929,3.69621809 3.47242604,2.72927582 4.64985207,2.72927582 L79.972426,2.72927582 C81.1498521,2.72927582 82.1074852,3.69621809 82.1074852,4.88508986 L82.1074852,59.995213 Z M79.972426,0.190036659 L4.64985207,0.190036659 C2.08576923,0.190036659 0,2.29608162 0,4.88508986 L0,59.995213 C0,62.5842213 2.08576923,64.6902662 4.64985207,64.6902662 L29.0654734,64.6902662 L18.2050888,89.1146999 C17.9204142,89.7545881 18.2035799,90.5062029 18.8373077,90.793137 C19.0042899,90.8688063 19.1793195,90.9048635 19.3513314,90.9048635 C19.8316568,90.9048635 20.2898521,90.6255472 20.4990828,90.1547722 L31.8221893,64.6902662 L38.8118047,64.6902662 L38.8118047,80.6321175 C38.8118047,81.3334554 39.3746154,81.9017371 40.0692012,81.9017371 C40.763787,81.9017371 41.3265976,81.3334554 41.3265976,80.6321175 L41.3265976,64.6902662 L48.316213,64.6902662 L59.6393195,90.1547722 C59.8485503,90.6255472 60.3067456,90.9048635 60.787071,90.9048635 C60.9590828,90.9048635 61.1341124,90.8688063 61.3010947,90.793137 C61.9348225,90.5062029 62.2179882,89.7545881 61.9333136,89.1146999 L51.072929,64.6902662 L79.972426,64.6902662 C82.5365089,64.6902662 84.6222781,62.5842213 84.6222781,59.995213 L84.6222781,4.88508986 C84.6222781,2.29608162 82.5365089,0.190036659 79.972426,0.190036659 L79.972426,0.190036659 Z" id="Fill-1" fill="#000000" mask="url(#mask-2)"></path>
                    </g>
                    <path d="M30.9374392,21.2925636 C31.1643264,20.6634051 31.5113305,20.1340509 31.9784513,19.7049902 C32.4444599,19.2759295 33.0139024,19.0616438 33.6845544,19.0616438 C34.1589045,19.0616438 34.5225914,19.1541096 34.774503,19.3390411 L33.9726123,23.952544 C33.7251495,24.2563601 33.4009454,24.5254403 33,24.7612524 C32.5984985,24.9965753 32.1936605,25.1144814 31.7849298,25.1144814 C31.4167941,25.1144814 31.1265119,24.9403131 30.9146392,24.592955 C30.7027666,24.2451076 30.5971083,23.7544031 30.5971083,23.1208415 C30.5971083,22.5313112 30.7105519,21.9217221 30.9374392,21.2925636 M30.1160851,25.6389432 C30.4920061,25.8796477 30.9552343,26 31.5052134,26 C31.9795635,26 32.4199917,25.8982387 32.8259419,25.6952055 C33.2318921,25.4921722 33.5738913,25.2382583 33.8513833,24.9334638 L33.8586125,25.0856164 C33.8486028,25.4036204 33.9220075,25.6355186 34.0782705,25.7813112 C34.2345336,25.9271037 34.4719867,26 34.7900737,26 C35.0469901,26 35.2955651,25.9466732 35.5352426,25.8400196 C35.7749201,25.7333659 35.9790074,25.6139922 36.1486167,25.4804305 C36.3171139,25.3473581 36.4294453,25.2407045 36.4850549,25.1609589 L36.2503823,24.8175147 C36.0841096,24.9295499 35.9500904,25.0068493 35.849437,25.0499022 C35.7482274,25.092955 35.6625886,25.1144814 35.5919644,25.1144814 C35.4707354,25.1144814 35.410121,25.0088063 35.410121,24.7984344 C35.410121,24.7632094 35.4156819,24.7020548 35.4256916,24.6144814 L37,15.1795499 L36.5984985,15 L34.5476157,15.2793542 L34.3885722,15.8321918 L35.335048,16.1183953 L34.9485611,18.3625245 C34.5403865,18.2827789 34.1944946,18.2426614 33.9119978,18.2426614 C32.9327124,18.2426614 32.0702071,18.5004892 31.3233699,19.0161448 C30.5765327,19.5322896 30.0026415,20.1746575 29.6016961,20.944227 C29.2001946,21.7133072 29,22.454501 29,23.167319 C29,23.7265166 29.0917559,24.2181996 29.2763798,24.6423679 C29.4604477,25.0665362 29.740164,25.398728 30.1160851,25.6389432" id="Fill-4" fill="#000000"></path>
                    <path d="M47.2040933,31 C47.7944448,31 48.3034386,30.8775725 48.7300578,30.6332428 C49.156677,30.3883878 49.4810907,30.1030738 49.7022818,29.7767755 C50.3851777,28.9087486 51.2780779,27.3234959 52.3804742,25.021543 L52.6159029,24.5470707 C52.9113329,23.9617304 53.1498125,23.4651896 53.3323587,23.0579736 C53.5143965,22.6502321 53.6715185,22.2109642 53.8027077,21.7412208 C53.9344054,21.2709519 54,20.8153954 54,20.3740257 C54,19.4581837 53.6999936,19 53.1004894,19 C52.8930274,19 52.7267527,19.0614765 52.6021738,19.183904 C52.4775949,19.3063316 52.4155597,19.4949645 52.4155597,19.7492775 C52.4155597,19.8259918 52.4247124,19.8969262 52.4430179,19.9620807 C52.4613233,20.0267099 52.491324,20.1165601 52.5325113,20.2316315 C52.6113265,20.4144846 52.6504799,20.5658114 52.6504799,20.6856117 C52.6504799,21.0891497 52.6098011,21.4758735 52.5294604,21.8452579 C52.4486112,22.2151677 52.3484396,22.554602 52.228437,22.8646116 C52.1084345,23.1740958 51.9421598,23.567125 51.7301214,24.0421228 C51.5780843,24.3684211 51.4418102,24.6831596 51.3218077,24.9858131 L50.2489036,27.2184079 L50.1105956,25.2611437 L49.7922837,22.475786 L49.5085489,19.986251 C49.4714295,19.6552237 49.3875294,19.4077415 49.2558317,19.2448551 C49.1246425,19.0814432 48.8973495,19 48.5744613,19 C48.3527617,19 48.136147,19.0577984 47.9241086,19.1728698 C47.7115617,19.2884666 47.5279985,19.4182503 47.3734189,19.5616954 C47.2188394,19.705666 47.1166338,19.8186356 47.0657853,19.9000788 L47.266637,20.3745512 C47.4140978,20.2263771 47.5269815,20.1323233 47.6057967,20.0939662 C47.683595,20.0556091 47.7578339,20.0361678 47.8269879,20.0361678 C47.9007182,20.0361678 47.9591941,20.0671688 48.0034323,20.1296961 C48.047162,20.1922235 48.080722,20.2952097 48.1036039,20.4391803 L49.2939681,27.7548822 L49.9585584,27.7548822 C49.7231297,28.2771696 49.4556664,28.7027761 49.1556601,29.0317016 C48.8556537,29.3601016 48.5612407,29.5949733 48.273438,29.7363167 C47.9851268,29.8781855 47.7278332,29.9491199 47.5015572,29.9491199 C47.303248,29.9491199 47.1151084,29.9281023 46.937647,29.8881688 C46.7601856,29.8471845 46.6183182,29.8009458 46.5120447,29.7484018 C46.4057713,29.6963832 46.3437361,29.6648568 46.3249221,29.6553989 L46,30.7998073 C46.1428844,30.8470969 46.3427191,30.8928102 46.5984873,30.9353709 C46.8547639,30.978457 47.0561241,31 47.2040933,31" id="Fill-6" fill="#000000"></path>
                    <path d="M40,18.6565585 L40.0716559,19 L43.6817914,19 L44,17.8058411 L43.5903359,17.6511652 L43.2042428,18.2958176 L41.0347672,18.5018826 C41.8173247,18.0770327 42.4641131,17.6002849 42.9732469,17.0706218 C43.4828521,16.5414674 43.737419,16.0026458 43.737419,15.4546657 C43.737419,14.4848886 43.2546847,14 42.2887448,14 C41.904066,14 41.552858,14.0864964 41.2360636,14.259998 C40.9187979,14.4334995 40.6609311,14.6334588 40.4615203,14.8588582 L40.6769593,15.2501272 C40.8839128,15.0613616 41.0927519,14.9046505 41.3034767,14.7799939 C41.514673,14.6548285 41.7404832,14.5927547 41.9823217,14.5927547 C42.2845021,14.5927547 42.503241,14.6797598 42.6371243,14.8527526 C42.7710077,15.026763 42.8379493,15.2826905 42.8379493,15.6215529 C42.8379493,16.1466368 42.5758397,16.671212 42.0520919,17.1947695 C41.5278727,17.7188359 40.8438421,18.2057596 40,18.6565585" id="Fill-8" fill="#000000"></path>
                    <path d="M33.9724018,44.952544 C33.7254779,45.2563601 33.4012513,45.5254403 32.9997219,45.7612524 C32.5987487,45.9965753 32.1938825,46.1144814 31.7851234,46.1144814 C31.416406,46.1144814 31.1266597,45.9403131 30.9147723,45.592955 C30.7028849,45.2451076 30.5966632,44.7544031 30.5966632,44.1208415 C30.5966632,43.5313112 30.7101147,42.9217221 30.9370177,42.2925636 C31.1644769,41.6634051 31.511505,41.1340509 31.9781022,40.7049902 C32.4446993,40.2759295 33.0136253,40.0616438 33.6848801,40.0616438 C34.1592631,40.0616438 34.5224192,40.1541096 34.7749044,40.3390411 L33.9724018,44.952544 Z M37,36.1795499 L36.5990268,36 L34.5480014,36.2793542 L34.3889468,36.8321918 L35.3349322,37.1183953 L34.9489746,39.3625245 C34.5402155,39.2827789 34.1942996,39.2426614 33.9117831,39.2426614 C32.9329857,39.2426614 32.0704206,39.5004892 31.3235315,40.0161448 C30.5766423,40.5322896 30.0027112,41.1746575 29.6017379,41.944227 C29.2002086,42.7133072 29,43.454501 29,44.167319 C29,44.7265166 29.0917623,45.2181996 29.2758429,45.6423679 C29.4599235,46.0665362 29.7402155,46.398728 30.1161627,46.6389432 C30.4921098,46.8796477 30.954814,47 31.5048314,47 C31.9792145,47 32.4196733,46.8982387 32.8256517,46.6952055 C33.2316302,46.4921722 33.5736531,46.2382583 33.8511644,45.9334638 L33.8589503,46.0856164 C33.8489399,46.4036204 33.9217935,46.6355186 34.0786236,46.7813112 C34.2348975,46.9271037 34.4718109,47 34.7899201,47 C35.0474105,47 35.2954466,46.9466732 35.5356969,46.8400196 C35.775391,46.7333659 35.9794925,46.6139922 36.1485575,46.4804305 C36.3176225,46.3473581 36.4299618,46.2407045 36.4855753,46.1609589 L36.2508863,45.8175147 C36.0840459,45.9295499 35.9505735,46.0068493 35.849357,46.0499022 C35.7486966,46.092955 35.6630518,46.1144814 35.5924227,46.1144814 C35.4711853,46.1144814 35.4105666,46.0088063 35.4105666,45.7984344 C35.4105666,45.7632094 35.4155718,45.7020548 35.4255822,45.6144814 L37,36.1795499 Z" id="Fill-10" fill="#000000"></path>
                    <text id="x" font-family="Merriweather-LightItalic, Merriweather" font-size="18" font-style="italic" font-weight="300" fill="#000000">
                        <tspan x="39.0351562" y="47">x</tspan>
                    </text>
                    <path d="M52.2042428,38.2953805 L50.0347672,38.5014245 C50.8177961,38.0771266 51.4641131,37.5999186 51.9732469,37.0708181 C52.4828521,36.5412088 52.737419,36.0029508 52.737419,35.4545177 C52.737419,34.4848392 52.2546847,34 51.2887448,34 C50.904066,34 50.5533294,34.0869963 50.2360636,34.2604803 C49.9187979,34.4339642 49.6609311,34.6333944 49.4619918,34.8592796 L49.6769593,35.25 C49.8839128,35.0612536 50.0927519,34.9045584 50.3034767,34.7799145 C50.514673,34.6552707 50.7409546,34.5926943 50.9823217,34.5926943 C51.2845021,34.5926943 51.503241,34.6796907 51.6371243,34.8531746 C51.7710077,35.0266585 51.8379493,35.2830688 51.8379493,35.6213879 C51.8379493,36.1464184 51.5758397,36.6714489 51.0520919,37.1949532 C50.5278727,37.7184575 49.8438421,38.2058405 49,38.6560847 L49.0716559,39 L52.6817914,39 L53,37.8059626 L52.5903359,37.6507937 L52.2042428,38.2953805 Z" id="Fill-14" fill="#000000"></path>
                    <mask id="mask-4" fill="white">
                        <use xlink:href="#path-3"></use>
                    </mask>
                    <g id="Clip-17"></g>
                    <polygon id="Fill-16" fill="#000000" mask="url(#mask-4)" points="28 33 55 33 55 32 28 32"></polygon>
                </g>
            </g>
        </g>
    </g>
</svg>