<?xml version="1.0" encoding="UTF-8"?>
<svg width="143px" height="87px" viewBox="0 0 143 87" version="1.1" xmlns="http://www.w3.org/2000/svg" xmlns:xlink="http://www.w3.org/1999/xlink">
    <!-- Generator: Sketch 44 (41411) - http://www.bohemiancoding.com/sketch -->
    <title>Page 1</title>
    <desc>Created with Sketch.</desc>
    <defs>
        <polygon id="path-1" points="71.4546845 87 142.909176 87 142.909176 0.24301676 71.4546845 0.24301676 0.000193243243 0.24301676 0.000193243243 87"></polygon>
    </defs>
    <g id="Page-1" stroke="none" stroke-width="1" fill="none" fill-rule="evenodd">
        <g id="Home" transform="translate(-214.000000, -857.000000)">
            <g id="Group-4" transform="translate(214.000000, 856.000000)">
                <g id="Page-1" transform="translate(0.000000, 1.000000)">
                    <g id="Group-3">
                        <mask id="mask-2" fill="white">
                            <use xlink:href="#path-1"></use>
                        </mask>
                        <g id="Clip-2"></g>
                        <path d="M139.11697,84.0837989 L113.367308,84.0837989 C112.608345,84.0837989 111.99045,83.462162 111.99045,82.6986034 L111.99045,44.7150838 L140.493828,44.7150838 L140.493828,82.6986034 C140.493828,83.462162 139.875933,84.0837989 139.11697,84.0837989 L139.11697,84.0837989 Z M44.8084703,69.2597765 L44.8084703,32.9773743 C44.8084703,30.870419 43.1103453,29.1620112 41.0160716,29.1620112 L32.0360581,29.1620112 L32.0360581,17.0111732 L121.411058,17.0111732 L121.411058,29.1620112 L113.367308,29.1620112 C111.273034,29.1620112 109.574909,30.870419 109.574909,32.9773743 L109.574909,69.2597765 L44.8084703,69.2597765 Z M42.3929297,82.6986034 C42.3929297,83.462162 41.7750345,84.0837989 41.0160716,84.0837989 L3.79259189,84.0837989 C3.03314595,84.0837989 2.41573378,83.462162 2.41573378,82.6986034 L2.41573378,32.9773743 C2.41573378,32.2138156 3.03314595,31.5921788 3.79259189,31.5921788 L41.0160716,31.5921788 C41.7750345,31.5921788 42.3929297,32.2138156 42.3929297,32.9773743 L42.3929297,82.6986034 Z M32.0360581,5.27346369 C32.0360581,3.8396648 33.1955176,2.67318436 34.6206865,2.67318436 L118.82643,2.67318436 C120.251599,2.67318436 121.411058,3.8396648 121.411058,5.27346369 L121.411058,14.5810056 L32.0360581,14.5810056 L32.0360581,5.27346369 Z M140.493828,32.9773743 L140.493828,42.2849162 L111.99045,42.2849162 L111.99045,32.9773743 C111.99045,32.2138156 112.608345,31.5921788 113.367308,31.5921788 L139.11697,31.5921788 C139.875933,31.5921788 140.493828,32.2138156 140.493828,32.9773743 L140.493828,32.9773743 Z M63.9211932,79.7094972 L89.0428149,79.7094972 L89.0428149,71.9329609 L63.9211932,71.9329609 L63.9211932,79.7094972 Z M100.916646,82.1396648 C101.295403,82.1396648 101.603626,82.4497542 101.603626,82.8308045 L101.603626,83.8786927 C101.603626,84.259743 101.295403,84.5698324 100.916646,84.5698324 L52.0473622,84.5698324 C51.6686054,84.5698324 51.3603824,84.259743 51.3603824,83.8786927 L51.3603824,82.8308045 C51.3603824,82.4497542 51.6686054,82.1396648 52.0473622,82.1396648 L61.5056527,82.1396648 L91.4583554,82.1396648 L100.916646,82.1396648 Z M139.11697,29.1620112 L123.826599,29.1620112 L123.826599,5.27346369 C123.826599,2.49967039 121.583528,0.24301676 118.82643,0.24301676 L34.6206865,0.24301676 C31.8635885,0.24301676 29.6205176,2.49967039 29.6205176,5.27346369 L29.6205176,29.1620112 L3.79259189,29.1620112 C1.69783514,29.1620112 0.000193243243,30.870419 0.000193243243,32.9773743 L0.000193243243,82.6986034 C0.000193243243,84.8055587 1.69783514,86.5139665 3.79259189,86.5139665 L41.0160716,86.5139665 C43.1103453,86.5139665 44.8084703,84.8055587 44.8084703,82.6986034 L44.8084703,71.6899441 L61.5056527,71.6899441 L61.5056527,79.7094972 L52.0473622,79.7094972 C50.3366764,79.7094972 48.9448419,81.1097598 48.9448419,82.8308045 L48.9448419,83.8786927 C48.9448419,85.5997374 50.3366764,87 52.0473622,87 L100.916646,87 C102.627332,87 104.019166,85.5997374 104.019166,83.8786927 L104.019166,82.8308045 C104.019166,81.1097598 102.627332,79.7094972 100.916646,79.7094972 L91.4583554,79.7094972 L91.4583554,71.6899441 L109.574909,71.6899441 L109.574909,82.6986034 C109.574909,84.8055587 111.273034,86.5139665 113.367308,86.5139665 L139.11697,86.5139665 C141.211244,86.5139665 142.909369,84.8055587 142.909369,82.6986034 L142.909369,32.9773743 C142.909369,30.870419 141.211244,29.1620112 139.11697,29.1620112 L139.11697,29.1620112 Z" id="Fill-1" fill="#000000" mask="url(#mask-2)"></path>
                    </g>
                    <path d="M97.7886598,29 L53.2113402,29 C52.5421959,29 52,29.4476 52,30 C52,30.5524 52.5421959,31 53.2113402,31 L97.7886598,31 C98.4578041,31 99,30.5524 99,30 C99,29.4476 98.4578041,29 97.7886598,29" id="Fill-4" fill="#000000"></path>
                    <path d="M95.7747442,37 L57.2252558,37 C56.5484245,37 56,37.4476 56,38 C56,38.5524 56.5484245,39 57.2252558,39 L95.7747442,39 C96.4515755,39 97,38.5524 97,38 C97,37.4476 96.4515755,37 95.7747442,37" id="Fill-6" fill="#000000"></path>
                    <path d="M88.8149787,45 L61.1850213,45 C60.5304155,45 60,45.4476 60,46 C60,46.5524 60.5304155,47 61.1850213,47 L88.8149787,47 C89.4695845,47 90,46.5524 90,46 C90,45.4476 89.4695845,45 88.8149787,45" id="Fill-8" fill="#000000"></path>
                    <path d="M126,77.6470588 C125.091765,77.6470588 124.352941,76.9082353 124.352941,76 C124.352941,75.0917647 125.091765,74.3529412 126,74.3529412 C126.908235,74.3529412 127.647059,75.0917647 127.647059,76 C127.647059,76.9082353 126.908235,77.6470588 126,77.6470588 M126,72 C123.794353,72 122,73.7943529 122,76 C122,78.2056471 123.794353,80 126,80 C128.205647,80 130,78.2056471 130,76 C130,73.7943529 128.205647,72 126,72" id="Fill-10" fill="#000000"></path>
                    <path d="M23,77.6470588 C22.0917647,77.6470588 21.3529412,76.9082353 21.3529412,76 C21.3529412,75.0917647 22.0917647,74.3529412 23,74.3529412 C23.9082353,74.3529412 24.6470588,75.0917647 24.6470588,76 C24.6470588,76.9082353 23.9082353,77.6470588 23,77.6470588 M23,72 C20.7943529,72 19,73.7943529 19,76 C19,78.2056471 20.7943529,80 23,80 C25.2056471,80 27,78.2056471 27,76 C27,73.7943529 25.2056471,72 23,72" id="Fill-12" fill="#000000"></path>
                </g>
            </g>
        </g>
    </g>
</svg>